Genre:Horror
Language:English
IMDb:http://www.imdb.com/title/tt1446498/
Encoder: Tony2
...........................................
General
Complete name : The.Familiar.2009.DVDRip.XVID.FEEL-FREE
Format : AVI
Format/Info : Audio Video Interleave
File size : 848 MiB
Duration : 1h 40mn
Overall bit rate : 1 181 Kbps
............................................
Video
Format : xvid
Codec ID : xvid
Duration : 1h 40mn
Bit rate : 1 041 Kbps
Width : 720 pixels
Height : 304 pixels
Display aspect ratio : 2.35:1
Frame rate : 23.976 fps
Resolution : 24 bits
Bits/(Pixel*Frame) : 0.198
Stream size : 747 MiB (88%)
...........................................
Audio
ID : 1
Format : MPEG Audio
Format version : Version 1
Format profile : Layer 3
Format settings, Mode : Joint stereo / MS Stereo
Codec ID : 55
Codec ID/Hint : MP3
Duration : 1h 40mn
Bit rate mode : Constant
Bit rate : 128 Kbps
Channel(s) : 2 channels
Sampling rate : 48.0 KHz
Resolution : 16 bits
Stream size : 91.9 MiB (11%)
Alignment : Aligned on interleaves
Interleave, duration : 24 ms (0.58 video frame)
Interleave, preload duration : 24 ms
Writing library : LAME3.97
............................................
Plot:
The Familiar is a terrifying story of spiritual manipulation in the life of a lonely gunsmith named Sam
 
http://www.starshare.ro/bitbucket/The.Familiar.2009.DVDRip.XVID.FEEL-FREE.avi_thumbs_%5B2010.07.13_20.33.33%5D.jpg